<svg xmlns="http://www.w3.org/2000/svg" xmlns:xlink="http://www.w3.org/1999/xlink" width="442" zoomAndPan="magnify" viewBox="0 0 331.5 135.000003" height="180" preserveAspectRatio="xMidYMid meet" version="1.0"><defs><g/><clipPath id="4fe776ed0a"><path d="M 24 76 L 306 76 L 306 76.21875 L 24 76.21875 Z M 24 76.21875 L 264.457031 76.21875 L 264.457031 82 L 24 82 Z M 24 76.21875 " clip-rule="nonzero"/></clipPath></defs><g clip-path="url(#4fe776ed0a)"><path fill="#7ed957" d="M 24.714844 76.59375 L 305.839844 76.59375 L 305.839844 81.804688 L 24.714844 81.804688 Z M 24.714844 76.59375 " fill-opacity="1" fill-rule="nonzero"/></g><g fill="#7ed957" fill-opacity="1"><g transform="translate(24.716201, 73.614555)"><g><path d="M 22.6875 1.375 C 18.59375 1.375 14.96875 0.421875 11.8125 -1.484375 C 8.664062 -3.390625 6.207031 -6.039062 4.4375 -9.4375 C 2.664062 -12.832031 1.78125 -16.753906 1.78125 -21.203125 C 1.78125 -25.679688 2.722656 -29.628906 4.609375 -33.046875 C 6.492188 -36.460938 9.113281 -39.125 12.46875 -41.03125 C 15.820312 -42.9375 19.703125 -43.890625 24.109375 -43.890625 C 27.253906 -43.890625 30.132812 -43.300781 32.75 -42.125 C 35.375 -40.957031 37.609375 -39.332031 39.453125 -37.25 C 41.296875 -35.164062 42.578125 -32.753906 43.296875 -30.015625 L 33.9375 -28.046875 C 33.257812 -30.148438 32.007812 -31.863281 30.1875 -33.1875 C 28.363281 -34.519531 26.300781 -35.1875 24 -35.1875 C 21.65625 -35.1875 19.566406 -34.59375 17.734375 -33.40625 C 15.910156 -32.21875 14.492188 -30.578125 13.484375 -28.484375 C 12.472656 -26.398438 11.96875 -23.972656 11.96875 -21.203125 C 11.96875 -18.421875 12.539062 -15.957031 13.6875 -13.8125 C 14.84375 -11.664062 16.429688 -9.988281 18.453125 -8.78125 C 20.484375 -7.570312 22.804688 -6.96875 25.421875 -6.96875 C 27.691406 -6.96875 29.71875 -7.429688 31.5 -8.359375 C 33.289062 -9.296875 34.726562 -10.578125 35.8125 -12.203125 C 36.90625 -13.835938 37.492188 -15.6875 37.578125 -17.75 L 19.359375 -17.75 L 19.359375 -24.0625 L 47.515625 -24.0625 L 47.515625 0 L 40.078125 0 L 39.0625 -8.03125 L 39 -8.03125 C 37.65625 -5.09375 35.53125 -2.789062 32.625 -1.125 C 29.726562 0.539062 26.414062 1.375 22.6875 1.375 Z M 22.6875 1.375 "/></g></g></g><g fill="#7ed957" fill-opacity="1"><g transform="translate(74.616776, 73.614555)"><g><path d="M 2.375 0 L 2.375 -44.1875 L 11.5 -44.1875 L 11.5 0 Z M 2.375 0 "/></g></g></g><g fill="#7ed957" fill-opacity="1"><g transform="translate(88.491278, 73.614555)"><g><path d="M 12.265625 0.890625 C 9.128906 0.890625 6.664062 -0.0195312 4.875 -1.84375 C 3.09375 -3.664062 2.203125 -6.207031 2.203125 -9.46875 L 2.203125 -30.484375 L 11.3125 -30.484375 L 11.3125 -12.265625 C 11.3125 -10.554688 11.765625 -9.195312 12.671875 -8.1875 C 13.585938 -7.175781 14.84375 -6.671875 16.4375 -6.671875 C 18.414062 -6.671875 20.019531 -7.316406 21.25 -8.609375 C 22.488281 -9.898438 23.109375 -11.578125 23.109375 -13.640625 L 23.109375 -30.484375 L 32.21875 -30.484375 L 32.21875 0 L 24.53125 0 L 23.15625 -5.53125 L 23.109375 -5.53125 C 21.992188 -3.46875 20.515625 -1.878906 18.671875 -0.765625 C 16.828125 0.335938 14.691406 0.890625 12.265625 0.890625 Z M 12.265625 0.890625 "/></g></g></g><g fill="#7ed957" fill-opacity="1"><g transform="translate(123.147763, 73.614555)"><g><path d="M 17.859375 1.1875 C 14.210938 1.1875 11.328125 0.175781 9.203125 -1.84375 C 7.078125 -3.875 6.015625 -6.613281 6.015625 -10.0625 L 6.015625 -23.578125 L 0.296875 -23.578125 L 0.296875 -30.484375 L 6.015625 -30.484375 L 6.015625 -38.890625 L 15.125 -40.84375 L 15.125 -30.484375 L 27.21875 -30.484375 L 27.21875 -23.578125 L 15.125 -23.578125 L 15.125 -11.5 C 15.125 -9.820312 15.578125 -8.507812 16.484375 -7.5625 C 17.398438 -6.613281 18.535156 -6.140625 19.890625 -6.140625 C 22.585938 -6.140625 24.648438 -7.445312 26.078125 -10.0625 L 28.828125 -4.34375 C 27.753906 -2.632812 26.210938 -1.285156 24.203125 -0.296875 C 22.203125 0.691406 20.085938 1.1875 17.859375 1.1875 Z M 17.859375 1.1875 "/></g></g></g><g fill="#7ed957" fill-opacity="1"><g transform="translate(152.683185, 73.614555)"><g><path d="M 19.59375 1.1875 C 16.019531 1.1875 12.863281 0.484375 10.125 -0.921875 C 7.382812 -2.328125 5.238281 -4.28125 3.6875 -6.78125 C 2.144531 -9.289062 1.375 -12.171875 1.375 -15.421875 C 1.375 -18.640625 2.054688 -21.46875 3.421875 -23.90625 C 4.796875 -26.34375 6.722656 -28.242188 9.203125 -29.609375 C 11.679688 -30.984375 14.546875 -31.671875 17.796875 -31.671875 C 20.972656 -31.671875 23.742188 -31.015625 26.109375 -29.703125 C 28.472656 -28.398438 30.316406 -26.585938 31.640625 -24.265625 C 32.972656 -21.941406 33.640625 -19.253906 33.640625 -16.203125 C 33.640625 -15.597656 33.597656 -14.988281 33.515625 -14.375 C 33.441406 -13.757812 33.347656 -13.21875 33.234375 -12.75 L 10.71875 -12.75 C 11 -10.5625 11.984375 -8.800781 13.671875 -7.46875 C 15.359375 -6.144531 17.453125 -5.484375 19.953125 -5.484375 C 21.859375 -5.484375 23.644531 -5.867188 25.3125 -6.640625 C 26.976562 -7.410156 28.25 -8.410156 29.125 -9.640625 L 34.296875 -5.65625 C 33.066406 -3.632812 31.128906 -1.988281 28.484375 -0.71875 C 25.847656 0.550781 22.882812 1.1875 19.59375 1.1875 Z M 10.65625 -17.984375 L 24.421875 -17.984375 C 24.253906 -20.242188 23.578125 -22.007812 22.390625 -23.28125 C 21.203125 -24.550781 19.671875 -25.1875 17.796875 -25.1875 C 15.898438 -25.1875 14.304688 -24.519531 13.015625 -23.1875 C 11.722656 -21.863281 10.9375 -20.128906 10.65625 -17.984375 Z M 10.65625 -17.984375 "/></g></g></g><g fill="#7ed957" fill-opacity="1"><g transform="translate(188.113782, 73.614555)"><g><path d="M 22.328125 -31.375 C 25.460938 -31.375 27.921875 -30.460938 29.703125 -28.640625 C 31.492188 -26.816406 32.390625 -24.273438 32.390625 -21.015625 L 32.390625 0 L 23.28125 0 L 23.28125 -18.21875 C 23.28125 -19.96875 22.820312 -21.335938 21.90625 -22.328125 C 21 -23.316406 19.75 -23.8125 18.15625 -23.8125 C 16.21875 -23.8125 14.625 -23.175781 13.375 -21.90625 C 12.125 -20.632812 11.5 -18.953125 11.5 -16.859375 L 11.5 0 L 2.375 0 L 2.375 -30.484375 L 10.0625 -30.484375 L 11.4375 -24.953125 L 11.5 -24.953125 C 12.601562 -27.015625 14.078125 -28.597656 15.921875 -29.703125 C 17.773438 -30.816406 19.910156 -31.375 22.328125 -31.375 Z M 22.328125 -31.375 "/></g></g></g><g fill="#7ed957" fill-opacity="1"><g transform="translate(222.710707, 73.614555)"><g><path d="M 22.328125 -31.375 C 25.460938 -31.375 27.921875 -30.460938 29.703125 -28.640625 C 31.492188 -26.816406 32.390625 -24.273438 32.390625 -21.015625 L 32.390625 0 L 23.28125 0 L 23.28125 -18.21875 C 23.28125 -19.96875 22.820312 -21.335938 21.90625 -22.328125 C 21 -23.316406 19.75 -23.8125 18.15625 -23.8125 C 16.21875 -23.8125 14.625 -23.175781 13.375 -21.90625 C 12.125 -20.632812 11.5 -18.953125 11.5 -16.859375 L 11.5 0 L 2.375 0 L 2.375 -30.484375 L 10.0625 -30.484375 L 11.4375 -24.953125 L 11.5 -24.953125 C 12.601562 -27.015625 14.078125 -28.597656 15.921875 -29.703125 C 17.773438 -30.816406 19.910156 -31.375 22.328125 -31.375 Z M 22.328125 -31.375 "/></g></g></g><g fill="#7ed957" fill-opacity="1"><g transform="translate(257.307643, 73.614555)"><g><path d="M 2.375 0 L 2.375 -44.1875 L 11.5 -44.1875 L 11.5 0 Z M 2.375 0 "/></g></g></g><g fill="#7ed957" fill-opacity="1"><g transform="translate(271.182134, 73.614555)"><g><path d="M 14.40625 13.703125 C 11.195312 13.703125 8.238281 13.191406 5.53125 12.171875 C 2.832031 11.160156 0.726562 9.800781 -0.78125 8.09375 L 2.5625 1.484375 C 3.832031 2.878906 5.445312 4.003906 7.40625 4.859375 C 9.375 5.710938 11.453125 6.140625 13.640625 6.140625 C 16.578125 6.140625 18.90625 5.375 20.625 3.84375 C 22.351562 2.3125 23.21875 0.238281 23.21875 -2.375 L 23.21875 -5 L 23.15625 -5 C 22.207031 -3.050781 20.859375 -1.53125 19.109375 -0.4375 C 17.367188 0.644531 15.445312 1.1875 13.34375 1.1875 C 9.96875 1.1875 7.285156 0.0859375 5.296875 -2.109375 C 3.316406 -4.316406 2.328125 -7.226562 2.328125 -10.84375 L 2.328125 -30.484375 L 11.375 -30.484375 L 11.375 -12.4375 C 11.375 -10.613281 11.847656 -9.113281 12.796875 -7.9375 C 13.753906 -6.769531 15.085938 -6.1875 16.796875 -6.1875 C 18.578125 -6.1875 20.082031 -6.8125 21.3125 -8.0625 C 22.539062 -9.3125 23.15625 -10.929688 23.15625 -12.921875 L 23.15625 -30.484375 L 32.28125 -30.484375 L 32.28125 -2.078125 C 32.28125 1.128906 31.535156 3.914062 30.046875 6.28125 C 28.554688 8.644531 26.476562 10.472656 23.8125 11.765625 C 21.15625 13.054688 18.019531 13.703125 14.40625 13.703125 Z M 14.40625 13.703125 "/></g></g></g><g fill="#7ed957" fill-opacity="1"><g transform="translate(29.124949, 114.313163)"><g><path d="M 0.25 0 L 0.25 -1.9375 L 11.53125 -15.75 L 0.5 -15.75 L 0.5 -17.5 L 13.796875 -17.5 L 13.796875 -15.5625 L 2.5625 -1.71875 L 14.046875 -1.71875 L 14.046875 0 Z M 0.25 0 "/></g></g></g><g fill="#7ed957" fill-opacity="1"><g transform="translate(43.416804, 114.313163)"><g><path d="M 7.125 0.5 C 5.894531 0.5 4.800781 0.207031 3.84375 -0.375 C 2.882812 -0.96875 2.128906 -1.769531 1.578125 -2.78125 C 1.023438 -3.800781 0.75 -4.957031 0.75 -6.25 C 0.75 -7.5625 1.019531 -8.722656 1.5625 -9.734375 C 2.101562 -10.753906 2.851562 -11.554688 3.8125 -12.140625 C 4.78125 -12.734375 5.875 -13.03125 7.09375 -13.03125 C 8.132812 -13.03125 9.066406 -12.800781 9.890625 -12.34375 C 10.722656 -11.882812 11.40625 -11.242188 11.9375 -10.421875 L 11.953125 -10.421875 L 11.953125 -18.234375 L 13.875 -18.234375 L 13.875 0 L 12.203125 0 L 12.03125 -2.15625 L 12.015625 -2.15625 C 11.484375 -1.332031 10.796875 -0.679688 9.953125 -0.203125 C 9.109375 0.265625 8.164062 0.5 7.125 0.5 Z M 7.34375 -1.21875 C 8.25 -1.21875 9.050781 -1.441406 9.75 -1.890625 C 10.457031 -2.335938 11.015625 -2.941406 11.421875 -3.703125 C 11.828125 -4.460938 12.03125 -5.3125 12.03125 -6.25 C 12.03125 -7.207031 11.828125 -8.0625 11.421875 -8.8125 C 11.015625 -9.570312 10.457031 -10.175781 9.75 -10.625 C 9.050781 -11.070312 8.25 -11.296875 7.34375 -11.296875 C 6.4375 -11.296875 5.625 -11.070312 4.90625 -10.625 C 4.195312 -10.175781 3.640625 -9.570312 3.234375 -8.8125 C 2.828125 -8.0625 2.625 -7.207031 2.625 -6.25 C 2.625 -5.289062 2.832031 -4.429688 3.25 -3.671875 C 3.664062 -2.910156 4.226562 -2.3125 4.9375 -1.875 C 5.644531 -1.4375 6.445312 -1.21875 7.34375 -1.21875 Z M 7.34375 -1.21875 "/></g></g></g><g fill="#7ed957" fill-opacity="1"><g transform="translate(58.52746, 114.313163)"><g><path d="M 6.671875 -13.046875 C 7.742188 -13.046875 8.625 -12.707031 9.3125 -12.03125 C 10 -11.351562 10.398438 -10.382812 10.515625 -9.125 L 8.890625 -8.578125 C 8.785156 -9.460938 8.515625 -10.132812 8.078125 -10.59375 C 7.640625 -11.0625 7.082031 -11.296875 6.40625 -11.296875 C 5.394531 -11.296875 4.59375 -10.90625 4 -10.125 C 3.414062 -9.34375 3.125 -8.265625 3.125 -6.890625 L 3.125 0 L 1.234375 0 L 1.234375 -12.53125 L 2.859375 -12.53125 L 3.03125 -10.5625 L 3.046875 -10.5625 C 3.398438 -11.332031 3.894531 -11.9375 4.53125 -12.375 C 5.164062 -12.820312 5.878906 -13.046875 6.671875 -13.046875 Z M 6.671875 -13.046875 "/></g></g></g><g fill="#7ed957" fill-opacity="1"><g transform="translate(69.544095, 114.313163)"><g><path d="M 7.421875 0.5 C 6.078125 0.5 4.90625 0.21875 3.90625 -0.34375 C 2.90625 -0.90625 2.128906 -1.691406 1.578125 -2.703125 C 1.023438 -3.710938 0.75 -4.894531 0.75 -6.25 C 0.75 -7.625 1.023438 -8.816406 1.578125 -9.828125 C 2.128906 -10.835938 2.90625 -11.625 3.90625 -12.1875 C 4.90625 -12.75 6.078125 -13.03125 7.421875 -13.03125 C 8.773438 -13.03125 9.953125 -12.75 10.953125 -12.1875 C 11.953125 -11.625 12.726562 -10.835938 13.28125 -9.828125 C 13.84375 -8.816406 14.125 -7.625 14.125 -6.25 C 14.125 -4.894531 13.84375 -3.710938 13.28125 -2.703125 C 12.726562 -1.691406 11.953125 -0.90625 10.953125 -0.34375 C 9.953125 0.21875 8.773438 0.5 7.421875 0.5 Z M 7.421875 -1.21875 C 8.878906 -1.21875 10.039062 -1.675781 10.90625 -2.59375 C 11.769531 -3.507812 12.203125 -4.726562 12.203125 -6.25 C 12.203125 -7.769531 11.769531 -8.988281 10.90625 -9.90625 C 10.039062 -10.832031 8.878906 -11.296875 7.421875 -11.296875 C 5.960938 -11.296875 4.796875 -10.832031 3.921875 -9.90625 C 3.054688 -8.988281 2.625 -7.769531 2.625 -6.25 C 2.625 -4.726562 3.054688 -3.507812 3.921875 -2.59375 C 4.796875 -1.675781 5.960938 -1.21875 7.421875 -1.21875 Z M 7.421875 -1.21875 "/></g></g></g><g fill="#7ed957" fill-opacity="1"><g transform="translate(84.406627, 114.313163)"><g><path d="M 4.421875 0 L 0.25 -12.53125 L 2.234375 -12.53125 L 5.578125 -1.859375 L 5.609375 -1.859375 L 8.90625 -12.53125 L 11.265625 -12.53125 L 14.609375 -1.84375 L 14.640625 -1.84375 L 17.96875 -12.53125 L 19.921875 -12.53125 L 15.8125 0 L 13.375 0 L 10.09375 -10.546875 L 10.046875 -10.546875 L 6.875 0 Z M 4.421875 0 "/></g></g></g><g fill="#7ed957" fill-opacity="1"><g transform="translate(104.578979, 114.313163)"><g><path d="M 7.421875 0.5 C 6.078125 0.5 4.90625 0.21875 3.90625 -0.34375 C 2.90625 -0.90625 2.128906 -1.691406 1.578125 -2.703125 C 1.023438 -3.710938 0.75 -4.894531 0.75 -6.25 C 0.75 -7.625 1.023438 -8.816406 1.578125 -9.828125 C 2.128906 -10.835938 2.90625 -11.625 3.90625 -12.1875 C 4.90625 -12.75 6.078125 -13.03125 7.421875 -13.03125 C 8.773438 -13.03125 9.953125 -12.75 10.953125 -12.1875 C 11.953125 -11.625 12.726562 -10.835938 13.28125 -9.828125 C 13.84375 -8.816406 14.125 -7.625 14.125 -6.25 C 14.125 -4.894531 13.84375 -3.710938 13.28125 -2.703125 C 12.726562 -1.691406 11.953125 -0.90625 10.953125 -0.34375 C 9.953125 0.21875 8.773438 0.5 7.421875 0.5 Z M 7.421875 -1.21875 C 8.878906 -1.21875 10.039062 -1.675781 10.90625 -2.59375 C 11.769531 -3.507812 12.203125 -4.726562 12.203125 -6.25 C 12.203125 -7.769531 11.769531 -8.988281 10.90625 -9.90625 C 10.039062 -10.832031 8.878906 -11.296875 7.421875 -11.296875 C 5.960938 -11.296875 4.796875 -10.832031 3.921875 -9.90625 C 3.054688 -8.988281 2.625 -7.769531 2.625 -6.25 C 2.625 -4.726562 3.054688 -3.507812 3.921875 -2.59375 C 4.796875 -1.675781 5.960938 -1.21875 7.421875 -1.21875 Z M 7.421875 -1.21875 "/></g></g></g><g fill="#7ed957" fill-opacity="1"><g transform="translate(119.441512, 114.313163)"><g/></g></g><g fill="#7ed957" fill-opacity="1"><g transform="translate(126.190443, 114.313163)"><g><path d="M 2.375 -14.96875 C 1.96875 -14.96875 1.632812 -15.09375 1.375 -15.34375 C 1.125 -15.601562 1 -15.9375 1 -16.34375 C 1 -16.757812 1.125 -17.09375 1.375 -17.34375 C 1.632812 -17.59375 1.96875 -17.71875 2.375 -17.71875 C 2.789062 -17.71875 3.128906 -17.59375 3.390625 -17.34375 C 3.660156 -17.09375 3.796875 -16.757812 3.796875 -16.34375 C 3.796875 -15.9375 3.660156 -15.601562 3.390625 -15.34375 C 3.128906 -15.09375 2.789062 -14.96875 2.375 -14.96875 Z M 1.421875 0 L 1.421875 -12.53125 L 3.296875 -12.53125 L 3.296875 0 Z M 1.421875 0 "/></g></g></g><g fill="#7ed957" fill-opacity="1"><g transform="translate(130.979205, 114.313163)"><g/></g></g><g fill="#7ed957" fill-opacity="1"><g transform="translate(137.728136, 114.313163)"><g><path d="M 7.984375 0.5 C 6.929688 0.5 5.984375 0.265625 5.140625 -0.203125 C 4.304688 -0.679688 3.625 -1.332031 3.09375 -2.15625 L 3.078125 -2.15625 L 2.875 0 L 1.234375 0 L 1.234375 -18.234375 L 3.125 -18.234375 L 3.125 -10.421875 L 3.15625 -10.421875 C 3.695312 -11.242188 4.378906 -11.882812 5.203125 -12.34375 C 6.035156 -12.800781 6.972656 -13.03125 8.015625 -13.03125 C 9.234375 -13.03125 10.316406 -12.734375 11.265625 -12.140625 C 12.222656 -11.554688 12.976562 -10.753906 13.53125 -9.734375 C 14.082031 -8.722656 14.359375 -7.5625 14.359375 -6.25 C 14.359375 -4.957031 14.082031 -3.800781 13.53125 -2.78125 C 12.976562 -1.769531 12.222656 -0.96875 11.265625 -0.375 C 10.304688 0.207031 9.210938 0.5 7.984375 0.5 Z M 7.765625 -1.21875 C 8.671875 -1.21875 9.472656 -1.4375 10.171875 -1.875 C 10.878906 -2.3125 11.4375 -2.910156 11.84375 -3.671875 C 12.25 -4.429688 12.453125 -5.289062 12.453125 -6.25 C 12.453125 -7.207031 12.25 -8.0625 11.84375 -8.8125 C 11.4375 -9.570312 10.878906 -10.175781 10.171875 -10.625 C 9.472656 -11.070312 8.671875 -11.296875 7.765625 -11.296875 C 6.867188 -11.296875 6.066406 -11.070312 5.359375 -10.625 C 4.648438 -10.175781 4.09375 -9.570312 3.6875 -8.8125 C 3.28125 -8.0625 3.078125 -7.207031 3.078125 -6.25 C 3.078125 -5.3125 3.28125 -4.460938 3.6875 -3.703125 C 4.09375 -2.941406 4.648438 -2.335938 5.359375 -1.890625 C 6.066406 -1.441406 6.867188 -1.21875 7.765625 -1.21875 Z M 7.765625 -1.21875 "/></g></g></g><g fill="#7ed957" fill-opacity="1"><g transform="translate(152.838792, 114.313163)"><g><path d="M 7.671875 0.5 C 6.347656 0.5 5.160156 0.203125 4.109375 -0.390625 C 3.054688 -0.992188 2.234375 -1.816406 1.640625 -2.859375 C 1.046875 -3.898438 0.75 -5.082031 0.75 -6.40625 C 0.75 -7.695312 1.019531 -8.835938 1.5625 -9.828125 C 2.101562 -10.816406 2.859375 -11.597656 3.828125 -12.171875 C 4.796875 -12.742188 5.898438 -13.03125 7.140625 -13.03125 C 8.367188 -13.03125 9.4375 -12.742188 10.34375 -12.171875 C 11.257812 -11.597656 11.972656 -10.8125 12.484375 -9.8125 C 12.992188 -8.8125 13.257812 -7.664062 13.28125 -6.375 C 13.28125 -6.257812 13.28125 -6.140625 13.28125 -6.015625 C 13.28125 -5.890625 13.269531 -5.757812 13.25 -5.625 L 2.703125 -5.625 C 2.804688 -4.769531 3.078125 -4.003906 3.515625 -3.328125 C 3.960938 -2.660156 4.546875 -2.140625 5.265625 -1.765625 C 5.992188 -1.398438 6.800781 -1.21875 7.6875 -1.21875 C 8.664062 -1.21875 9.539062 -1.441406 10.3125 -1.890625 C 11.09375 -2.347656 11.660156 -2.914062 12.015625 -3.59375 L 13.640625 -2.921875 C 13.378906 -2.265625 12.953125 -1.675781 12.359375 -1.15625 C 11.773438 -0.632812 11.082031 -0.226562 10.28125 0.0625 C 9.476562 0.351562 8.609375 0.5 7.671875 0.5 Z M 2.734375 -7.296875 L 11.265625 -7.296875 C 11.148438 -8.566406 10.710938 -9.550781 9.953125 -10.25 C 9.203125 -10.945312 8.257812 -11.296875 7.125 -11.296875 C 5.96875 -11.296875 4.988281 -10.925781 4.1875 -10.1875 C 3.394531 -9.445312 2.910156 -8.484375 2.734375 -7.296875 Z M 2.734375 -7.296875 "/></g></g></g><g fill="#7ed957" fill-opacity="1"><g transform="translate(167.081026, 114.313163)"><g><path d="M 0.5 0 L 0.5 -2.078125 L 9.453125 -10.796875 L 0.75 -10.796875 L 0.75 -12.53125 L 11.515625 -12.53125 L 11.515625 -10.421875 L 2.53125 -1.71875 L 11.765625 -1.71875 L 11.765625 0 Z M 0.5 0 "/></g></g></g><g fill="#7ed957" fill-opacity="1"><g transform="translate(179.338281, 114.313163)"><g><path d="M 6.671875 5.703125 C 5.691406 5.703125 4.75 5.5625 3.84375 5.28125 C 2.9375 5 2.128906 4.601562 1.421875 4.09375 C 0.722656 3.59375 0.164062 3.015625 -0.25 2.359375 L 1.21875 1.109375 C 1.707031 1.972656 2.441406 2.671875 3.421875 3.203125 C 4.410156 3.734375 5.476562 4 6.625 4 C 7.664062 4 8.570312 3.789062 9.34375 3.375 C 10.113281 2.957031 10.710938 2.375 11.140625 1.625 C 11.566406 0.882812 11.78125 0.0078125 11.78125 -1 L 11.78125 -2.375 L 11.765625 -2.375 C 11.265625 -1.601562 10.566406 -0.988281 9.671875 -0.53125 C 8.785156 -0.0703125 7.898438 0.15625 7.015625 0.15625 C 5.796875 0.15625 4.710938 -0.113281 3.765625 -0.65625 C 2.828125 -1.207031 2.09375 -1.972656 1.5625 -2.953125 C 1.03125 -3.941406 0.765625 -5.078125 0.765625 -6.359375 C 0.765625 -7.679688 1.03125 -8.835938 1.5625 -9.828125 C 2.09375 -10.816406 2.828125 -11.585938 3.765625 -12.140625 C 4.710938 -12.703125 5.796875 -12.984375 7.015625 -12.984375 C 7.929688 -12.984375 8.828125 -12.75 9.703125 -12.28125 C 10.578125 -11.820312 11.269531 -11.226562 11.78125 -10.5 L 11.8125 -10.5 L 12.015625 -12.53125 L 13.703125 -12.53125 L 13.703125 -1 C 13.703125 0.363281 13.40625 1.546875 12.8125 2.546875 C 12.226562 3.546875 11.410156 4.320312 10.359375 4.875 C 9.304688 5.425781 8.078125 5.703125 6.671875 5.703125 Z M 7.265625 -1.5625 C 8.179688 -1.5625 8.976562 -1.769531 9.65625 -2.1875 C 10.34375 -2.613281 10.878906 -3.1875 11.265625 -3.90625 C 11.660156 -4.625 11.859375 -5.441406 11.859375 -6.359375 C 11.859375 -7.296875 11.660156 -8.132812 11.265625 -8.875 C 10.878906 -9.625 10.34375 -10.210938 9.65625 -10.640625 C 8.976562 -11.078125 8.179688 -11.296875 7.265625 -11.296875 C 6.359375 -11.296875 5.554688 -11.085938 4.859375 -10.671875 C 4.171875 -10.253906 3.628906 -9.671875 3.234375 -8.921875 C 2.847656 -8.179688 2.65625 -7.328125 2.65625 -6.359375 C 2.65625 -5.410156 2.847656 -4.578125 3.234375 -3.859375 C 3.628906 -3.140625 4.171875 -2.578125 4.859375 -2.171875 C 5.554688 -1.765625 6.359375 -1.5625 7.265625 -1.5625 Z M 7.265625 -1.5625 "/></g></g></g><g fill="#7ed957" fill-opacity="1"><g transform="translate(194.275255, 114.313163)"><g><path d="M 1.234375 0 L 1.234375 -18.234375 L 3.125 -18.234375 L 3.125 0 Z M 1.234375 0 "/></g></g></g><g fill="#7ed957" fill-opacity="1"><g transform="translate(198.642211, 114.313163)"><g><path d="M 5.75 0.5 C 4.3125 0.5 3.175781 0.0664062 2.34375 -0.796875 C 1.519531 -1.671875 1.109375 -2.882812 1.109375 -4.4375 L 1.109375 -12.53125 L 3.03125 -12.53125 L 3.03125 -4.640625 C 3.03125 -3.578125 3.320312 -2.726562 3.90625 -2.09375 C 4.488281 -1.457031 5.28125 -1.140625 6.28125 -1.140625 C 7.125 -1.140625 7.867188 -1.320312 8.515625 -1.6875 C 9.160156 -2.050781 9.664062 -2.554688 10.03125 -3.203125 C 10.40625 -3.859375 10.59375 -4.609375 10.59375 -5.453125 L 10.59375 -12.53125 L 12.484375 -12.53125 L 12.484375 0 L 10.765625 0 L 10.59375 -1.859375 L 10.5625 -1.859375 C 10.039062 -1.097656 9.378906 -0.515625 8.578125 -0.109375 C 7.785156 0.296875 6.84375 0.5 5.75 0.5 Z M 5.75 0.5 "/></g></g></g><g fill="#7ed957" fill-opacity="1"><g transform="translate(212.363387, 114.313163)"><g><path d="M 6.703125 0.5 C 5.523438 0.5 4.570312 0.140625 3.84375 -0.578125 C 3.113281 -1.296875 2.75 -2.226562 2.75 -3.375 L 2.75 -10.96875 L 0 -10.96875 L 0 -12.53125 L 2.75 -12.53125 L 2.75 -16.25 L 4.640625 -16.703125 L 4.640625 -12.53125 L 10.25 -12.53125 L 10.25 -10.96875 L 4.640625 -10.96875 L 4.640625 -3.578125 C 4.640625 -2.859375 4.84375 -2.269531 5.25 -1.8125 C 5.65625 -1.363281 6.195312 -1.140625 6.875 -1.140625 C 7.5 -1.140625 8.070312 -1.359375 8.59375 -1.796875 C 9.113281 -2.234375 9.429688 -2.859375 9.546875 -3.671875 L 11.09375 -3.03125 C 10.976562 -2.300781 10.707031 -1.671875 10.28125 -1.140625 C 9.863281 -0.609375 9.335938 -0.203125 8.703125 0.078125 C 8.078125 0.359375 7.410156 0.5 6.703125 0.5 Z M 6.703125 0.5 "/></g></g></g><g fill="#7ed957" fill-opacity="1"><g transform="translate(223.553704, 114.313163)"><g><path d="M 7.671875 0.5 C 6.347656 0.5 5.160156 0.203125 4.109375 -0.390625 C 3.054688 -0.992188 2.234375 -1.816406 1.640625 -2.859375 C 1.046875 -3.898438 0.75 -5.082031 0.75 -6.40625 C 0.75 -7.695312 1.019531 -8.835938 1.5625 -9.828125 C 2.101562 -10.816406 2.859375 -11.597656 3.828125 -12.171875 C 4.796875 -12.742188 5.898438 -13.03125 7.140625 -13.03125 C 8.367188 -13.03125 9.4375 -12.742188 10.34375 -12.171875 C 11.257812 -11.597656 11.972656 -10.8125 12.484375 -9.8125 C 12.992188 -8.8125 13.257812 -7.664062 13.28125 -6.375 C 13.28125 -6.257812 13.28125 -6.140625 13.28125 -6.015625 C 13.28125 -5.890625 13.269531 -5.757812 13.25 -5.625 L 2.703125 -5.625 C 2.804688 -4.769531 3.078125 -4.003906 3.515625 -3.328125 C 3.960938 -2.660156 4.546875 -2.140625 5.265625 -1.765625 C 5.992188 -1.398438 6.800781 -1.21875 7.6875 -1.21875 C 8.664062 -1.21875 9.539062 -1.441406 10.3125 -1.890625 C 11.09375 -2.347656 11.660156 -2.914062 12.015625 -3.59375 L 13.640625 -2.921875 C 13.378906 -2.265625 12.953125 -1.675781 12.359375 -1.15625 C 11.773438 -0.632812 11.082031 -0.226562 10.28125 0.0625 C 9.476562 0.351562 8.609375 0.5 7.671875 0.5 Z M 2.734375 -7.296875 L 11.265625 -7.296875 C 11.148438 -8.566406 10.710938 -9.550781 9.953125 -10.25 C 9.203125 -10.945312 8.257812 -11.296875 7.125 -11.296875 C 5.96875 -11.296875 4.988281 -10.925781 4.1875 -10.1875 C 3.394531 -9.445312 2.910156 -8.484375 2.734375 -7.296875 Z M 2.734375 -7.296875 "/></g></g></g><g fill="#7ed957" fill-opacity="1"><g transform="translate(237.795939, 114.313163)"><g><path d="M 7.96875 -13.03125 C 9.40625 -13.03125 10.535156 -12.59375 11.359375 -11.71875 C 12.191406 -10.851562 12.609375 -9.644531 12.609375 -8.09375 L 12.609375 0 L 10.6875 0 L 10.6875 -7.890625 C 10.6875 -8.960938 10.394531 -9.8125 9.8125 -10.4375 C 9.226562 -11.070312 8.4375 -11.390625 7.4375 -11.390625 C 6.59375 -11.390625 5.847656 -11.207031 5.203125 -10.84375 C 4.566406 -10.476562 4.0625 -9.972656 3.6875 -9.328125 C 3.3125 -8.679688 3.125 -7.929688 3.125 -7.078125 L 3.125 0 L 1.234375 0 L 1.234375 -12.53125 L 2.953125 -12.53125 L 3.125 -10.671875 L 3.15625 -10.671875 C 3.675781 -11.429688 4.332031 -12.015625 5.125 -12.421875 C 5.925781 -12.828125 6.875 -13.03125 7.96875 -13.03125 Z M 7.96875 -13.03125 "/></g></g></g><g fill="#7ed957" fill-opacity="1"><g transform="translate(251.517115, 114.313163)"><g><path d="M 7.421875 0.5 C 6.078125 0.5 4.90625 0.21875 3.90625 -0.34375 C 2.90625 -0.90625 2.128906 -1.691406 1.578125 -2.703125 C 1.023438 -3.710938 0.75 -4.894531 0.75 -6.25 C 0.75 -7.625 1.023438 -8.816406 1.578125 -9.828125 C 2.128906 -10.835938 2.90625 -11.625 3.90625 -12.1875 C 4.90625 -12.75 6.078125 -13.03125 7.421875 -13.03125 C 8.773438 -13.03125 9.953125 -12.75 10.953125 -12.1875 C 11.953125 -11.625 12.726562 -10.835938 13.28125 -9.828125 C 13.84375 -8.816406 14.125 -7.625 14.125 -6.25 C 14.125 -4.894531 13.84375 -3.710938 13.28125 -2.703125 C 12.726562 -1.691406 11.953125 -0.90625 10.953125 -0.34375 C 9.953125 0.21875 8.773438 0.5 7.421875 0.5 Z M 7.421875 -1.21875 C 8.878906 -1.21875 10.039062 -1.675781 10.90625 -2.59375 C 11.769531 -3.507812 12.203125 -4.726562 12.203125 -6.25 C 12.203125 -7.769531 11.769531 -8.988281 10.90625 -9.90625 C 10.039062 -10.832031 8.878906 -11.296875 7.421875 -11.296875 C 5.960938 -11.296875 4.796875 -10.832031 3.921875 -9.90625 C 3.054688 -8.988281 2.625 -7.769531 2.625 -6.25 C 2.625 -4.726562 3.054688 -3.507812 3.921875 -2.59375 C 4.796875 -1.675781 5.960938 -1.21875 7.421875 -1.21875 Z M 7.421875 -1.21875 "/></g></g></g><g fill="#7ed957" fill-opacity="1"><g transform="translate(266.379648, 114.313163)"><g><path d="M 4.421875 0 L 0.25 -12.53125 L 2.234375 -12.53125 L 5.578125 -1.859375 L 5.609375 -1.859375 L 8.90625 -12.53125 L 11.265625 -12.53125 L 14.609375 -1.84375 L 14.640625 -1.84375 L 17.96875 -12.53125 L 19.921875 -12.53125 L 15.8125 0 L 13.375 0 L 10.09375 -10.546875 L 10.046875 -10.546875 L 6.875 0 Z M 4.421875 0 "/></g></g></g><g fill="#7ed957" fill-opacity="1"><g transform="translate(286.552, 114.313163)"><g><path d="M 7.421875 0.5 C 6.078125 0.5 4.90625 0.21875 3.90625 -0.34375 C 2.90625 -0.90625 2.128906 -1.691406 1.578125 -2.703125 C 1.023438 -3.710938 0.75 -4.894531 0.75 -6.25 C 0.75 -7.625 1.023438 -8.816406 1.578125 -9.828125 C 2.128906 -10.835938 2.90625 -11.625 3.90625 -12.1875 C 4.90625 -12.75 6.078125 -13.03125 7.421875 -13.03125 C 8.773438 -13.03125 9.953125 -12.75 10.953125 -12.1875 C 11.953125 -11.625 12.726562 -10.835938 13.28125 -9.828125 C 13.84375 -8.816406 14.125 -7.625 14.125 -6.25 C 14.125 -4.894531 13.84375 -3.710938 13.28125 -2.703125 C 12.726562 -1.691406 11.953125 -0.90625 10.953125 -0.34375 C 9.953125 0.21875 8.773438 0.5 7.421875 0.5 Z M 7.421875 -1.21875 C 8.878906 -1.21875 10.039062 -1.675781 10.90625 -2.59375 C 11.769531 -3.507812 12.203125 -4.726562 12.203125 -6.25 C 12.203125 -7.769531 11.769531 -8.988281 10.90625 -9.90625 C 10.039062 -10.832031 8.878906 -11.296875 7.421875 -11.296875 C 5.960938 -11.296875 4.796875 -10.832031 3.921875 -9.90625 C 3.054688 -8.988281 2.625 -7.769531 2.625 -6.25 C 2.625 -4.726562 3.054688 -3.507812 3.921875 -2.59375 C 4.796875 -1.675781 5.960938 -1.21875 7.421875 -1.21875 Z M 7.421875 -1.21875 "/></g></g></g></svg>